<?xml version="1.0" standalone="no"?>
<!DOCTYPE svg PUBLIC "-//W3C//DTD SVG 20010904//EN"
 "http://www.w3.org/TR/2001/REC-SVG-20010904/DTD/svg10.dtd">
<svg version="1.0" xmlns="http://www.w3.org/2000/svg"
 width="400.000000pt" height="171.000000pt" viewBox="0 0 400.000000 171.000000"
 preserveAspectRatio="xMidYMid meet">

<g transform="translate(0.000000,171.000000) scale(0.100000,-0.100000)"
fill="#000000" stroke="none">
<path d="M375 1554 c-192 -85 -356 -160 -363 -167 -12 -9 -13 -42 -9 -177 14
-449 147 -757 427 -992 111 -93 290 -208 322 -208 27 0 202 112 308 196 83 67
197 197 253 289 112 183 178 438 193 745 6 116 5 126 -13 143 -29 26 -714 327
-743 327 -14 0 -182 -70 -375 -156z m692 -99 c168 -74 309 -135 314 -135 14 0
11 -126 -6 -257 -46 -347 -141 -544 -360 -742 -74 -67 -241 -181 -265 -181
-28 0 -234 147 -307 219 -40 39 -92 100 -118 135 -124 174 -205 448 -209 705
l-1 114 245 109 c135 60 274 122 310 138 36 16 71 30 79 30 8 0 151 -61 318
-135z"/>
<path d="M786 1198 c-19 -29 -166 -537 -166 -573 0 -30 36 -51 74 -41 21 5 29
18 50 89 57 188 136 476 136 494 0 25 -30 53 -58 53 -12 0 -28 -10 -36 -22z"/>
<path d="M501 1127 c-117 -65 -301 -185 -311 -203 -22 -40 -3 -60 153 -157 84
-52 162 -99 174 -105 30 -17 71 0 79 33 9 36 -13 56 -140 135 -57 35 -102 68
-100 72 3 4 55 38 116 75 117 71 139 96 120 137 -15 33 -46 38 -91 13z"/>
<path d="M912 1120 c-26 -42 -6 -66 119 -142 65 -40 118 -75 119 -78 0 -3 -50
-36 -111 -75 -118 -74 -142 -97 -133 -132 7 -25 47 -45 72 -35 53 21 332 206
338 224 11 37 -16 62 -175 161 -166 102 -205 115 -229 77z"/>
<path d="M1590 1050 l0 -190 93 0 c77 0 99 4 131 23 53 30 86 93 86 163 0 64
-13 100 -48 138 -41 43 -81 56 -177 56 l-85 0 0 -190z m222 103 c25 -26 32
-42 36 -85 9 -107 -37 -157 -146 -161 l-57 -2 -3 144 -3 143 71 -4 c63 -3 74
-7 102 -35z"/>
<path d="M2035 1139 c-57 -16 -105 -82 -105 -144 0 -37 34 -99 67 -120 36 -24
112 -25 147 -1 84 54 89 188 9 244 -35 24 -79 32 -118 21z m96 -68 c76 -76 -9
-210 -102 -161 -54 29 -60 116 -12 164 35 35 76 34 114 -3z"/>
<path d="M2486 1135 c-51 -18 -63 -30 -47 -49 12 -14 16 -14 34 -1 28 20 91
19 111 -1 9 -8 16 -25 16 -37 0 -20 -4 -22 -54 -19 -66 4 -108 -15 -126 -58
-11 -27 -11 -37 3 -65 22 -47 74 -63 137 -41 29 10 48 12 54 6 6 -6 20 -10 32
-10 22 0 23 3 18 73 -11 160 -20 181 -87 206 -35 14 -43 13 -91 -4z m114 -172
c0 -41 -26 -63 -76 -63 -55 0 -75 27 -49 66 13 21 23 24 70 24 53 0 55 -1 55
-27z"/>
<path d="M2830 1136 c-19 -7 -43 -17 -52 -21 -13 -5 -18 -3 -18 9 0 9 -8 16
-20 16 -19 0 -20 -7 -20 -140 l0 -140 25 0 c25 0 25 0 25 94 0 93 0 94 31 121
39 32 78 30 96 -5 7 -15 13 -63 13 -117 0 -92 0 -93 25 -93 25 0 25 0 25 93 0
125 -12 165 -55 183 -19 8 -36 14 -37 14 -2 -1 -19 -7 -38 -14z"/>
<path d="M2260 1000 l0 -140 25 0 c25 0 25 0 25 93 0 103 6 116 68 138 21 7
32 18 32 30 0 23 -29 25 -70 4 -27 -14 -30 -14 -30 0 0 9 -9 15 -25 15 l-25 0
0 -140z"/>
<path d="M2556 804 c-9 -8 -16 -24 -16 -34 0 -11 -8 -24 -17 -30 -17 -10 -17
-10 0 -20 14 -9 17 -25 17 -91 0 -51 4 -78 10 -74 6 3 10 42 10 86 0 78 0 79
25 79 14 0 25 5 25 10 0 6 -11 10 -25 10 -17 0 -25 5 -25 18 0 25 19 42 48 42
13 0 20 4 17 10 -9 15 -52 12 -69 -6z"/>
<path d="M2125 798 c-27 -15 -35 -28 -35 -60 0 -33 26 -52 93 -69 54 -13 74
-37 57 -69 -15 -29 -86 -31 -127 -4 -29 19 -40 0 -11 -20 53 -37 145 -27 166
18 23 50 -10 86 -90 101 -49 9 -73 36 -59 64 18 33 69 39 124 16 10 -4 17 -3
17 4 0 27 -97 41 -135 19z"/>
<path d="M2656 803 c-3 -3 -6 -19 -6 -34 0 -15 -6 -30 -12 -33 -10 -5 -10 -7
0 -12 8 -4 12 -29 12 -74 0 -84 19 -111 64 -94 25 9 19 24 -9 24 -24 0 -25 2
-25 70 0 63 2 70 20 70 11 0 20 5 20 10 0 6 -9 10 -20 10 -15 0 -20 7 -20 29
0 30 -12 46 -24 34z"/>
<path d="M2373 742 c-30 -4 -73 -57 -73 -88 0 -53 47 -104 96 -104 33 0 73 31
84 64 24 75 -30 140 -107 128z m72 -45 c24 -35 19 -82 -11 -106 -15 -12 -32
-21 -39 -21 -27 0 -65 41 -65 71 0 77 75 113 115 56z"/>
<path d="M3423 738 c-68 -18 -87 -106 -34 -159 37 -37 79 -38 118 -4 21 18 24
24 12 25 -9 0 -22 -7 -29 -15 -19 -22 -58 -18 -85 10 -40 39 -32 45 55 45 77
0 80 1 80 23 0 53 -58 91 -117 75z m72 -33 c39 -38 32 -45 -45 -45 -42 0 -70
4 -70 10 0 19 48 60 70 60 12 0 32 -11 45 -25z"/>
<path d="M2753 726 c30 -77 71 -167 78 -172 5 -3 19 15 30 40 11 25 22 46 25
46 3 0 14 -21 25 -47 24 -56 29 -53 75 53 36 84 39 94 25 94 -5 0 -21 -30 -37
-67 -15 -38 -31 -72 -35 -77 -4 -5 -15 9 -24 30 -14 34 -14 42 0 76 9 22 11
38 5 38 -6 0 -15 -12 -21 -27 l-11 -28 -15 28 c-19 38 -28 27 -14 -16 10 -29
9 -42 -5 -74 l-16 -38 -24 50 c-13 28 -28 62 -33 78 -6 15 -15 27 -22 27 -6 0
-9 -6 -6 -14z"/>
<path d="M3070 730 c-21 -13 -5 -23 18 -11 12 6 27 11 36 11 20 0 46 -28 46
-49 0 -15 -8 -18 -45 -17 -59 1 -94 -30 -79 -71 13 -39 54 -51 98 -30 31 15
35 15 40 0 14 -35 22 5 17 75 -5 57 -11 77 -26 88 -21 16 -83 18 -105 4z m98
-112 c3 -22 -2 -30 -22 -39 -13 -6 -36 -9 -49 -5 -60 15 -31 79 32 74 31 -3
36 -7 39 -30z"/>
<path d="M3250 644 c0 -72 3 -95 13 -92 7 3 13 29 15 72 3 66 4 68 40 89 28
17 33 23 19 25 -10 2 -27 -4 -37 -13 -16 -14 -18 -14 -23 0 -4 8 -11 15 -17
15 -6 0 -10 -37 -10 -96z"/>
</g>
</svg>
